<?xml version="1.0" encoding="UTF-8"?>
<svg id="b" data-name="Camada 2" xmlns="http://www.w3.org/2000/svg" viewBox="0 0 107.91 83.31">
  <defs>
    <style>
      .d {
        fill: #1f140f;
      }

      .d, .e {
        fill-rule: evenodd;
        stroke-width: 0px;
      }

      .e {
        fill: #727276;
      }
    </style>
  </defs>
  <g id="c" data-name="Camada 1">
    <path class="d" d="M53.65,52.51h-4.14s4.44,2.11,4.44,2.11l4.13-2.11s-4.39-1.82-4.14-23.49l-.3,23.48ZM53.95,29.03v-.34c0,.11,0,.23,0,.34Z"/>
    <path class="d" d="M53.65,60.18s1.2-.6,2.43-.58c1.22.02,5.7,1.29,5.7,1.29,0,0-3.94-.19-5.39-.25-1.45-.06-2.74.81-2.74.81,0,0-1.29-.87-2.74-.81-1.45.06-5.39.25-5.39.25,0,0,4.48-1.27,5.7-1.29,1.22-.02,2.43.58,2.43.58"/>
    <path class="d" d="M53.7,63.39c-.74-.02-1.41-.16-1.41-.16.8.55,1.88.42,2.49.21.39-.14.61-.31.39-.35,0,0-.73.28-1.47.3"/>
    <path class="d" d="M54.71,54.24s2.94-1.47,4.47-2.27c1.53-.8-2.27.79-2.97.72-.7-.06-1.49,1.55-1.49,1.55"/>
    <path class="d" d="M60.5,60.66l-6.48,2.98s1.89-.63,3.89-1.44c1.24-.5,2.71-1.03,3.65-1.36l-1.06-.18Z"/>
    <path class="d" d="M28.02,35.76s.43,2.78,8.03,12.08c.37.46.73.93,1.07,1.41.89,1.26,3.09,3.24,3.78,4.64.75,1.51,2.34,12.65,2.49,14.76.36,5.06-.02,10.14-.93,14.67,0,0,.77-7.68-.04-15.55-.14-1.33-1.23-10.93-1.95-13.52-.32-1.14-12.54-13.59-12.49-16.74l.03-1.75Z"/>
    <path class="e" d="M28.12,31.16c.26-1.64-1.3,3.98-.07,6.84,1.23,2.87,1.27,1.36,1.27,1.36-1.33-2.89-1.7-5.02-1.2-8.2"/>
    <path class="e" d="M78.71,31.16c-.26-1.64,1.3,3.98.07,6.84-1.23,2.87-1.27,1.36-1.27,1.36,1.33-2.89,1.7-5.02,1.2-8.2"/>
    <path class="d" d="M76.55,37.46c.91-5.8,1.49-11.28.81-15.66C75.33,8.6,68.22.8,54.87,0c13.03,1.72,19.23,8.52,21.13,21.92.76,5.34-.1,11.94-1.14,18.27l1.69-2.73ZM52.43,0c-13.34.8-20.46,8.6-22.49,21.79-1.17,7.59,1.46,17.61,2.25,27.79.34,4.42.98,7.87,3.32,11.33.74,1.1,2.09,2.43,2.85,3.2,1.28,1.29,2.45,2.63,4.98,4.71,4.75,3.91,7.53,5.6,10.18,5.68,2.56.08,5.08-1.42,9.46-5.5,2.4-2.23,6.54-5.07,7.91-7.02,2.44-3.47,2.66-6.37,3.47-11.6.49-3.11,1.07-6.3,1.61-9.44-.47.69-1.04,1.53-1.63,2.34-.13.73-.25,1.46-.37,2.17-1.17,6.85-1.05,11.01-3.87,15.5-1.43,2.28-5.65,5.25-8.48,7.77-4.2,3.73-5.75,4.79-8.01,4.91-2.44.13-9.84-5.73-10.76-6.48-3.45-2.82-5.28-5.25-6.65-7.5-1.97-3.23-2.51-6.74-3.03-14.21-.55-7.85-2.84-16.68-1.87-23.53C33.2,8.52,39.4,1.72,52.43,0Z"/>
    <path class="d" d="M78.81,35.76s-.43,2.78-8.03,12.08c-.37.46-.73.93-1.07,1.41-.89,1.26-3.09,3.24-3.78,4.64-.75,1.51-2.34,12.65-2.49,14.76-.36,5.06.02,10.14.93,14.67,0,0-.77-7.68.04-15.55.14-1.33,1.23-10.93,1.95-13.52.32-1.14,12.54-13.59,12.49-16.74l-.03-1.75Z"/>
    <path class="d" d="M26.21,70.16c.96,1.01,2.71,4.49,2.29,7.07,0,0-.52-4.98-2.99-6.35-.29-.09.55-.79.69-.72"/>
    <path class="d" d="M11.14,62.94c.7-.95.73-1.5,1.3-1.63.66-.15,1.38.17,1.38.17.86-1.29,1.79-.87,4.71-1.3,1.31-.19,4.08-.84,4.08-.84,0,0-4.74,2.03-5.96,2.51-1.22.48-2.06.95-2.62.91-.56-.04-2.51-.18-2.89.19M2.33,25.91v-.02c.02-.14.04-.29.07-.43h0c1.73-8.63,7.64-14.67,21.03-15.38-12.81-.1-19.52,5.41-22.15,13.21-.05.17-.33,1.07-.45,1.51v.03s0,0,0,0l-.02.07h0c-.33,1.29-.56,2.62-.7,3.98-.46,4.58.63,9.06,1.56,14.35.81,4.56.63,6.98.9,8.3,1.15,5.7,6.6,12.27,9.36,17.36,1.18,2.18,1.66,3.74,3.52,4.75,3.59,1.96,7.25-1.19,11.57-3.68,5-2.88,8.82-6.05,8.79-6.08-3.64,2.24-13,8.5-16.22,9.23-1.38.31-2.68.76-3.97-.23-1.85-1.42-2.15-3.41-4.53-7.11-6.11-9.5-6.86-12.03-7.16-14.29-.32-2.44-.19-4.77-.92-8.6-1.07-5.59-1.53-10.91-.92-15.59h0c.03-.21.06-.43.09-.64v.02s.14-.78.14-.78ZM5.9,56.18l1.73-1.32c.15.13.39.29.73.49,1.1.62,2.63,1.99,2.63,1.99,0,0-.04-.06-.46-.87-.41-.81-1.12-1.74-1.12-1.74,0,0,1.9-2.79,1.57-8.35-.15-2.5-.96-4.45-3.04-8.31,1.92,6.12,3.66,10.86-2.05,18.12Z"/>
    <path class="d" d="M22.61,59.34l-7.11,7.56,5.55-6.89s.21-.36,1.56-.67"/>
    <polygon class="d" points="11.14 62.94 14.87 65.17 11.78 62.52 11.14 62.94"/>
    <path class="d" d="M81.71,70.16c-.96,1.01-2.71,4.49-2.29,7.07,0,0,.52-4.98,2.98-6.35.29-.09-.55-.79-.69-.72"/>
    <path class="d" d="M96.77,62.94c-.7-.95-.73-1.5-1.3-1.63-.66-.15-1.38.17-1.38.17-.86-1.29-1.79-.87-4.71-1.3-1.31-.19-4.08-.84-4.08-.84,0,0,4.74,2.03,5.97,2.51,1.22.48,2.06.95,2.62.91.56-.04,2.51-.18,2.88.19M105.59,25.91v-.02c-.02-.14-.04-.29-.07-.43h0c-1.73-8.63-7.64-14.67-21.03-15.38,12.81-.1,19.52,5.41,22.15,13.21.05.17.33,1.07.45,1.51v.03s0,0,0,0l.02.07h0c.33,1.29.56,2.62.7,3.98.46,4.58-.63,9.06-1.56,14.35-.81,4.56-.63,6.98-.9,8.3-1.15,5.7-6.6,12.27-9.36,17.36-1.18,2.18-1.66,3.74-3.52,4.75-3.59,1.96-7.25-1.19-11.58-3.68-5-2.88-8.82-6.05-8.79-6.08,3.64,2.24,13,8.5,16.22,9.23,1.38.31,2.68.76,3.98-.23,1.85-1.42,2.15-3.41,4.53-7.11,6.11-9.5,6.86-12.03,7.16-14.29.32-2.44.19-4.77.92-8.6,1.07-5.59,1.53-10.91.92-15.59h0c-.03-.21-.06-.43-.09-.64v.02s-.14-.78-.14-.78ZM102.01,56.18l-1.73-1.32c-.16.13-.39.29-.73.49-1.1.62-2.63,1.99-2.63,1.99,0,0,.04-.06.46-.87.41-.81,1.12-1.74,1.12-1.74,0,0-1.9-2.79-1.57-8.35.15-2.5.96-4.45,3.04-8.31-1.92,6.12-3.66,10.86,2.05,18.12Z"/>
    <path class="d" d="M85.3,59.34l7.11,7.56-5.55-6.89s-.21-.36-1.56-.67"/>
    <polygon class="d" points="96.77 62.94 93.04 65.17 96.13 62.52 96.77 62.94"/>
  </g>
</svg>