<?xml version="1.0" encoding="utf-8"?>
<!-- Generator: Adobe Illustrator 28.2.0, SVG Export Plug-In . SVG Version: 6.00 Build 0)  -->
<svg version="1.1" xmlns="http://www.w3.org/2000/svg" xmlns:xlink="http://www.w3.org/1999/xlink" x="0px" y="0px"
	 viewBox="0 0 230 60" style="enable-background:new 0 0 230 60;" xml:space="preserve" width="230" height="60">
<style type="text/css">
	.st0{fill:none;stroke:#FFFFFF;stroke-miterlimit:10;}
	.st1{fill:#FFFFFF;}
	.st2{fill-rule:evenodd;clip-rule:evenodd;fill:#FFFFFF;}
</style>
<g id="b">
	<path id="XMLID_687_" class="st0" d="M216.8,30c-0.2,0.1-0.3,0.1-0.5,0.2c-0.2,0.1-0.3,0.2-0.5,0.3c-0.2,0.1-0.3,0.2-0.5,0.3
		c-0.2,0.1-0.3,0.3-0.5,0.4l-0.1,0.1c-0.1,0.1-0.3,0.2-0.4,0.4c-0.1,0.1-0.3,0.3-0.4,0.5c-0.1,0.2-0.2,0.3-0.3,0.5
		c-0.1,0.2-0.2,0.3-0.3,0.5c-0.1,0.1-0.1,0.3-0.2,0.5c-0.1,0.2-0.1,0.3-0.2,0.5c0,0.1-0.1,0.2-0.1,0.4l0,0.1h10.8
		c0-0.1,0-0.2-0.1-0.3c0-0.2-0.1-0.4-0.2-0.5c-0.1-0.2-0.1-0.4-0.2-0.6c-0.1-0.2-0.2-0.4-0.3-0.5l0,0l0,0l0,0l0,0l0,0
		c-0.3-0.5-0.6-0.9-0.9-1.3c-0.3-0.4-0.6-0.7-1-0.9c-0.3-0.2-0.7-0.4-1.1-0.5v0c-0.4-0.1-0.8-0.2-1.2-0.2c-0.2,0-0.3,0-0.5,0
		c-0.2,0-0.3,0-0.5,0.1c-0.2,0-0.3,0.1-0.5,0.1h0C217.1,29.9,216.9,30,216.8,30L216.8,30z M226.7,33.5c0.1,0.3,0.1,0.6,0.2,0.8
		c0,0.3,0.1,0.6,0.1,0.9c0,0.3,0,0.6,0.1,0.9c0,0.3,0,0.6,0,0.9l0,0.3l0,0.2l0,0.2h-0.2h-0.2h-0.3h-13.5l0,0.1l0,0l0,0l0,0l0,0
		c0,0.3,0.1,0.6,0.2,0.9c0.1,0.3,0.1,0.6,0.2,0.8c0.1,0.3,0.1,0.5,0.2,0.7c0.1,0.2,0.2,0.5,0.3,0.7c0.1,0.2,0.2,0.4,0.3,0.6
		c0.1,0.2,0.2,0.4,0.3,0.5c0.1,0.2,0.2,0.3,0.3,0.4c0.1,0.1,0.2,0.3,0.4,0.4c0.2,0.1,0.3,0.3,0.5,0.4c0.2,0.1,0.3,0.2,0.5,0.3
		c0.2,0.1,0.3,0.2,0.5,0.3c0.2,0.1,0.3,0.2,0.5,0.2c0.2,0.1,0.4,0.1,0.5,0.2c0.2,0.1,0.4,0.1,0.6,0.1c0.2,0,0.4,0.1,0.6,0.1
		c0.2,0,0.4,0,0.6,0l0,0l0,0h0l0,0l0,0c0.1,0,0.3,0,0.4,0c0.1,0,0.3,0,0.4,0c0.1,0,0.3,0,0.4,0c0.1,0,0.3,0,0.4,0c0.1,0,0.3,0,0.4,0
		c0.1,0,0.3,0,0.4-0.1c0.1,0,0.3,0,0.4-0.1c0.1,0,0.2-0.1,0.4-0.1l0,0l0,0l0,0l0,0l0,0l0.1,0l0.2-0.1c0.1,0,0.2-0.1,0.3-0.1v0
		l0.3-0.1c0.1,0,0.2,0,0.3-0.1l0.4-0.1v0l0.5-0.1l0.4-0.1l0,0l0.4-0.1l0.3-0.1l0.3-0.1v0.3V44v0.5v1.2v0.4v0.3v0.2v0.2l-0.2,0
		l-0.2,0l-0.2,0.1c-0.2,0.1-0.3,0.1-0.5,0.2c-0.2,0.1-0.4,0.1-0.5,0.1c-0.2,0-0.3,0.1-0.5,0.1c-0.2,0-0.4,0.1-0.5,0.1
		c-0.2,0-0.4,0.1-0.5,0.1c-0.2,0-0.4,0.1-0.5,0.1c-0.2,0-0.4,0.1-0.5,0.1c-0.2,0-0.4,0.1-0.5,0.1l0,0l0,0h0l-0.2,0
		c-0.1,0-0.1,0-0.2,0l-0.2,0c-0.1,0-0.1,0-0.2,0c-0.1,0-0.1,0-0.2,0h0c-0.1,0-0.1,0-0.2,0c-0.1,0-0.1,0-0.2,0c-0.1,0-0.1,0-0.2,0h0
		l0,0h0h0h-0.2v0c-0.3,0-0.5,0-0.7,0c-0.3,0-0.6-0.1-0.9-0.1c-0.3,0-0.6-0.1-0.9-0.2l0,0c-0.3-0.1-0.6-0.2-0.8-0.3
		c-0.3-0.1-0.5-0.2-0.8-0.3c-0.3-0.1-0.5-0.3-0.8-0.4c-0.3-0.2-0.5-0.3-0.7-0.5c-0.2-0.2-0.5-0.4-0.7-0.6l0,0l0,0l0,0l0,0
		c-0.2-0.2-0.5-0.4-0.7-0.7c-0.2-0.2-0.4-0.5-0.6-0.8c-0.2-0.3-0.4-0.6-0.6-0.9c-0.2-0.3-0.3-0.6-0.5-0.9c-0.1-0.3-0.3-0.6-0.4-1
		c-0.1-0.3-0.2-0.7-0.3-1.1c-0.1-0.4-0.2-0.7-0.3-1.1c-0.1-0.4-0.1-0.8-0.2-1.2l0,0l0,0l0,0v0v0v0v-0.7v-0.7l0,0l0-0.1v0l0-0.1h0v0
		l0,0l0-0.1v0l0-0.1v0l0-0.1l0,0l0,0v0l0,0v0l0,0l0,0v0l0,0c0-0.4,0.1-0.7,0.1-1.1c0-0.3,0.1-0.6,0.2-0.8l0,0l0.1-0.2
		c0.1-0.3,0.2-0.7,0.3-1c0.1-0.3,0.3-0.6,0.4-0.9c0.2-0.3,0.3-0.6,0.5-0.9c0.2-0.3,0.4-0.6,0.6-0.8c0.2-0.3,0.4-0.5,0.7-0.8
		c0.2-0.3,0.5-0.5,0.8-0.7l0.2-0.2l0.2-0.1l0,0c0.3-0.3,0.7-0.5,1-0.7c0.4-0.3,0.8-0.5,1.3-0.6c0.5-0.2,0.9-0.3,1.4-0.4
		c0.5-0.1,1-0.1,1.5-0.1c0,0,0.1,0,0.1,0c0.1,0,0.1,0,0.2,0h0c0.1,0,0.1,0,0.2,0c0.1,0,0.1,0,0.2,0c0,0,0.1,0,0.1,0c0,0,0.1,0,0.2,0
		c0.1,0,0.1,0,0.2,0c0,0,0.1,0,0.2,0c0.3,0,0.6,0.1,0.8,0.2c0.3,0.1,0.5,0.2,0.8,0.3c0.3,0.1,0.5,0.2,0.8,0.4
		c0.2,0.1,0.5,0.3,0.7,0.5c0.2,0.2,0.5,0.3,0.7,0.5c0.2,0.2,0.4,0.4,0.6,0.6c0.2,0.2,0.4,0.5,0.6,0.7c0.2,0.2,0.4,0.5,0.5,0.8l0,0.1
		l0,0.1v0c0.1,0.2,0.3,0.4,0.4,0.7c0.1,0.3,0.2,0.5,0.3,0.7c0.1,0.3,0.2,0.5,0.3,0.8C226.5,33,226.6,33.2,226.7,33.5z M208.7,44v0.5
		v0.3v0.8v0.6v0.2v0.2l-0.1,0.1l-0.1,0.1l0,0l0,0v0h0c-0.1,0-0.7,0.3-1.2,0.4c-0.1,0-0.2,0.1-0.3,0.1l0,0c-0.1,0-0.2,0.1-0.3,0.1
		c-0.1,0-0.2,0-0.3,0.1c-0.1,0-0.2,0-0.3,0.1h0c-0.2,0-0.4,0.1-0.5,0.1c-0.2,0-0.4,0.1-0.5,0.1c-0.2,0-0.4,0.1-0.5,0.1
		c-0.2,0-0.4,0.1-0.5,0.1l0,0l0,0h0h0l-0.2,0c-0.1,0-0.1,0-0.2,0l-0.2,0c-0.1,0-0.1,0-0.2,0c-0.1,0-0.1,0-0.2,0h0
		c-0.1,0-0.1,0-0.2,0c-0.1,0-0.1,0-0.2,0c-0.1,0-0.1,0-0.2,0h0l0,0h0h0h-0.2v0c-0.3,0-0.5,0-0.7,0c-0.3,0-0.6-0.1-0.9-0.1
		c-0.3,0-0.6-0.1-0.9-0.2c-0.3-0.1-0.6-0.2-0.8-0.3c-0.3-0.1-0.5-0.2-0.8-0.3c-0.3-0.1-0.5-0.3-0.8-0.4c-0.2-0.1-0.5-0.3-0.7-0.5
		c-0.2-0.2-0.5-0.4-0.7-0.6l-0.2-0.2l-0.2-0.2l0,0c-0.2-0.2-0.3-0.3-0.5-0.5c-0.2-0.2-0.4-0.5-0.6-0.7c-0.2-0.3-0.4-0.6-0.6-0.9
		c-0.2-0.3-0.3-0.6-0.5-0.9c-0.1-0.3-0.3-0.6-0.4-1c-0.1-0.3-0.2-0.7-0.3-1.1c-0.1-0.4-0.2-0.7-0.2-1.1c-0.1-0.3-0.1-0.6-0.1-1h0
		l0-0.2l0,0v0l0,0l0,0l0,0c0-0.1,0-0.1,0-0.2l0-0.1v0l0-0.1l0,0v0h0l0-0.1v0l0-0.1v0l0-0.1v0l0,0l0,0v-0.7v0v0v0l0,0l0,0l0,0h0
		l0-0.1l0-0.1l0-0.1h0l0-0.1h0l0,0h0l0,0v0h0v0v0l0,0l0,0v0l0,0c0-0.4,0-0.8,0.1-1.1c0-0.4,0.1-0.7,0.2-1.1c0.1-0.3,0.2-0.7,0.3-1
		c0.1-0.3,0.2-0.6,0.4-1c0.1-0.3,0.3-0.6,0.4-0.9c0.2-0.3,0.3-0.6,0.5-0.8c0.2-0.3,0.4-0.5,0.6-0.8c0.2-0.3,0.5-0.5,0.7-0.7
		c0.2-0.2,0.4-0.3,0.6-0.5c0.2-0.2,0.5-0.3,0.7-0.4c0.2-0.1,0.5-0.3,0.8-0.4c0.3-0.1,0.5-0.2,0.8-0.3c0.3-0.1,0.6-0.2,0.9-0.2
		c0.3-0.1,0.6-0.1,1-0.2c0.3,0,0.7-0.1,1-0.1c0.4,0,0.7,0,1.1,0c0.1,0,0.2,0,0.4,0c0.2,0,0.3,0,0.5,0c0.2,0,0.3,0,0.5,0
		c0.2,0,0.4,0,0.6,0c0.2,0,0.4,0,0.6,0c0.2,0,0.4,0,0.6,0c0.2,0,0.5,0,0.7,0.1c0.2,0,0.5,0,0.7,0.1l0.3,0l0.2,0l0.2,0v0.2v0.2v0.3
		v1.7v0.4v0.3V30l-0.2,0l-0.2,0l-0.4,0c-0.5-0.1-1-0.1-1.5-0.1c-0.5,0-0.9-0.1-1.3-0.1c-0.4,0-0.8,0-1.1-0.1c-0.3,0-0.6,0-0.9,0
		c-0.3,0-0.5,0-0.8,0c-0.2,0-0.5,0-0.7,0.1c-0.2,0-0.4,0.1-0.7,0.1c-0.2,0-0.4,0.1-0.6,0.2c-0.2,0.1-0.4,0.1-0.5,0.2
		c-0.2,0.1-0.3,0.2-0.5,0.2c-0.2,0.1-0.3,0.2-0.4,0.3h0c-0.1,0.1-0.3,0.2-0.4,0.3l-0.1,0.1l0,0c-0.1,0.1-0.2,0.2-0.3,0.4
		c-0.1,0.1-0.2,0.3-0.3,0.5c-0.1,0.2-0.2,0.4-0.3,0.5c-0.1,0.2-0.2,0.4-0.3,0.6c-0.1,0.2-0.2,0.4-0.2,0.7c-0.1,0.2-0.1,0.5-0.2,0.7
		c-0.1,0.3-0.1,0.5-0.1,0.8c0,0.3-0.1,0.5-0.1,0.8v0l0,0l0,0l0,0l0,0c0,0,0,0,0,0.1v0c0,0,0,0.1,0,0.1v0c0,0,0,0.1,0,0.1v0v0.1h0
		l0,0.2v0c0,0,0,0.1,0,0.1c0,0,0,0.1,0,0.2l0,0.2v0l0,0l0,0v0v0v0.1v0c0,0,0,0,0,0.1v0c0,0,0,0,0,0.1c0,0,0,0.1,0,0.1
		c0,0,0,0.1,0,0.1h0c0,0,0,0.1,0,0.1c0,0,0,0.1,0,0.1l0,0.1l0,0l0,0l0,0l0,0c0,0.3,0.1,0.6,0.2,0.9c0.1,0.3,0.1,0.6,0.2,0.8
		c0.1,0.3,0.1,0.5,0.2,0.7c0.1,0.2,0.2,0.5,0.3,0.7c0.1,0.2,0.2,0.4,0.3,0.6c0.1,0.2,0.2,0.4,0.3,0.5c0.1,0.2,0.2,0.3,0.3,0.4
		c0.1,0.1,0.2,0.3,0.4,0.4c0.2,0.1,0.3,0.3,0.5,0.4c0.2,0.1,0.3,0.2,0.5,0.3c0.2,0.1,0.3,0.2,0.5,0.3c0.2,0.1,0.3,0.2,0.5,0.2
		c0.2,0.1,0.4,0.1,0.5,0.2c0.2,0.1,0.4,0.1,0.6,0.1c0.2,0,0.4,0.1,0.6,0.1c0.2,0,0.4,0,0.6,0l0,0l0,0h0l0,0l0,0c0.1,0,0.3,0,0.4,0
		c0.1,0,0.3,0,0.4,0c0.1,0,0.3,0,0.4,0c0.1,0,0.3,0,0.4,0c0.4,0,0.8-0.1,1.2-0.2h0l0,0c0.1,0,0.3-0.1,0.3-0.1l0,0
		c0.7-0.2,1.5-0.4,2.2-0.6l0,0l0,0c0.2-0.1,0.4-0.1,0.7-0.2l0.3-0.1l0.3-0.1v0.3V44z M186.3,40.7c0.1-0.2,0.2-0.5,0.2-0.7
		c0.1-0.2,0.1-0.5,0.2-0.8c0-0.2,0.1-0.5,0.1-0.7c0-0.3,0-0.5,0-0.8h0v-0.1v-7.8c-0.5,0-1-0.1-1.4-0.1c-0.5,0-0.9-0.1-1.3-0.1
		c-0.4,0-0.7,0-1-0.1c-0.3,0-0.4,0-0.6,0l0,0l0,0l0,0v0h0l0,0c-0.2,0-0.4,0-0.6,0c-0.2,0-0.4,0-0.6,0c-0.2,0-0.4,0.1-0.6,0.1
		c-0.2,0-0.4,0.1-0.6,0.2l0,0h0c-0.2,0.1-0.3,0.1-0.5,0.2l0,0c-0.2,0.1-0.4,0.2-0.5,0.3c-0.2,0.1-0.3,0.2-0.5,0.4
		c-0.2,0.1-0.3,0.3-0.5,0.4l0,0l0,0l0,0l0,0c-0.2,0.2-0.4,0.4-0.5,0.6c-0.2,0.2-0.3,0.4-0.5,0.7c-0.2,0.3-0.3,0.5-0.4,0.8
		c-0.1,0.3-0.3,0.6-0.4,0.9l0,0l0,0l0,0c0,0.1-0.1,0.3-0.1,0.4c0,0.1-0.1,0.3-0.1,0.4c0,0.1-0.1,0.3-0.1,0.5c0,0.2-0.1,0.3-0.1,0.5
		c0,0.2-0.1,0.3-0.1,0.5c0,0.2,0,0.3-0.1,0.5c0,0.1,0,0.3,0,0.5c0,0.1,0,0.3,0,0.5c0,0.2,0,0.4,0,0.6c0,0.2,0,0.4,0,0.5
		c0,0.2,0,0.4,0.1,0.5c0,0.2,0.1,0.3,0.1,0.5c0,0.2,0.1,0.3,0.1,0.5c0,0.2,0.1,0.3,0.2,0.5c0.1,0.1,0.1,0.3,0.2,0.4
		c0.1,0.1,0.1,0.3,0.2,0.4l0,0c0.3,0.5,0.6,0.9,0.9,1.3c0.3,0.4,0.7,0.7,1,0.9c0.3,0.2,0.7,0.4,1.1,0.5c0.4,0.1,0.8,0.2,1.2,0.2
		c0.2,0,0.3,0,0.5,0c0.2,0,0.3,0,0.5-0.1c0.2,0,0.3-0.1,0.5-0.1c0.2-0.1,0.3-0.1,0.5-0.2c0.2-0.1,0.3-0.1,0.5-0.2
		c0.2-0.1,0.3-0.2,0.5-0.3l0,0c0.2-0.1,0.3-0.2,0.5-0.3c0.2-0.1,0.3-0.3,0.5-0.4l0,0l0,0c0.2-0.2,0.4-0.3,0.5-0.5v0
		c0.2-0.2,0.3-0.4,0.4-0.6c0.1-0.2,0.3-0.4,0.4-0.6C186.1,41.2,186.2,41,186.3,40.7z M179.4,26.8c0.3-0.1,0.6-0.2,0.9-0.2
		c0.3-0.1,0.6-0.1,0.9-0.2c0.3,0,0.6-0.1,0.9-0.1c0.3,0,0.6,0,1,0h0l0,0v0c0.2,0,0.4,0,0.6,0c0.2,0,0.5,0,0.7,0c0.2,0,0.5,0,0.7,0
		c0.3,0,0.5,0,0.8,0.1c0.3,0,0.5,0,0.8,0.1c0.2,0,0.5,0,0.9,0.1c0.3,0,0.6,0.1,0.9,0.1c0.3,0,0.6,0.1,0.9,0.1l0.3,0l0.2,0l0.2,0v0.2
		v0.2v0.3v19v0.3v0.2v0.2h-0.2h-0.2h-0.3h-1.6h-0.3h-0.2h-0.2v-0.2v-0.2v-0.3v-1.1c0,0-0.1,0.1-0.1,0.1c-0.1,0.1-0.2,0.2-0.3,0.2
		l0,0l0,0l0,0l0,0c-0.2,0.2-0.4,0.4-0.6,0.5c-0.2,0.2-0.4,0.3-0.6,0.4c-0.2,0.1-0.4,0.3-0.7,0.4c-0.2,0.1-0.5,0.2-0.7,0.3
		c-0.2,0.1-0.5,0.2-0.7,0.2c-0.2,0.1-0.5,0.1-0.7,0.2c-0.2,0-0.5,0.1-0.8,0.1c-0.3,0-0.5,0-0.8,0c-0.6,0-1.2-0.1-1.8-0.2
		c-0.3-0.1-0.6-0.2-0.9-0.3c-0.3-0.1-0.6-0.2-0.8-0.4c-0.3-0.1-0.5-0.3-0.8-0.5c-0.2-0.2-0.5-0.4-0.7-0.6c-0.2-0.2-0.5-0.4-0.7-0.7
		c-0.2-0.2-0.4-0.5-0.6-0.8l0-0.1l0-0.1v0c-0.2-0.2-0.3-0.4-0.4-0.7c-0.1-0.2-0.3-0.5-0.4-0.8c-0.1-0.3-0.3-0.6-0.4-0.8
		c-0.1-0.3-0.2-0.6-0.3-0.9c-0.1-0.3-0.2-0.6-0.2-0.9c-0.1-0.3-0.1-0.6-0.2-0.9c0-0.3-0.1-0.6-0.1-0.9c0-0.3,0-0.6,0-1
		c0-0.1,0-0.1,0-0.2c0-0.1,0-0.2,0-0.3c0-0.1,0-0.2,0-0.3v0c0-0.1,0-0.2,0-0.3c0-0.1,0-0.2,0-0.3c0-0.1,0-0.2,0-0.3
		c0-0.1,0-0.2,0-0.3c0-0.1,0-0.2,0-0.3l0-0.2l0-0.2l0,0c0-0.2,0.1-0.5,0.2-0.7c0.1-0.3,0.2-0.6,0.2-0.9c0.1-0.3,0.2-0.7,0.4-1
		c0.1-0.3,0.3-0.6,0.4-0.9c0.2-0.3,0.3-0.6,0.5-0.9c0.2-0.3,0.4-0.6,0.6-0.8c0.2-0.2,0.4-0.5,0.6-0.7c0.1-0.2,0.3-0.3,0.5-0.5l0,0
		l0.2-0.2l0.2-0.1c0.2-0.2,0.5-0.4,0.7-0.6l0,0c0.3-0.2,0.5-0.4,0.8-0.5c0.3-0.2,0.5-0.3,0.8-0.4C178.8,27,179.1,26.9,179.4,26.8z
		 M170.1,18.4c-0.2,0-0.4,0.1-0.6,0.1c-0.2,0-0.4,0.1-0.6,0.2v0c-0.2,0.1-0.3,0.1-0.5,0.2v0c-0.2,0.1-0.3,0.2-0.4,0.3h0
		c-0.1,0.1-0.2,0.2-0.3,0.3v0c-0.1,0.1-0.2,0.3-0.3,0.5c-0.1,0.2-0.2,0.4-0.2,0.6c-0.1,0.2-0.2,0.5-0.2,0.8
		c-0.1,0.3-0.1,0.6-0.2,0.9c-0.1,0.3-0.1,0.7-0.1,1.1c0,0.4-0.1,0.8-0.1,1.2c0,0.4,0,0.8-0.1,1.3h0V26v0.6h3.4h0.3h0.2h0.2v0.2v0.2
		v0.3v1.7v0.3v0.2v0.2h-0.2h-0.2h-0.3h-3.4v18v0.2h-0.2h-2.7h-0.2v-0.2v-18h-1.9h-0.3h-0.2h-0.2v-0.2v-0.2v-0.3v-1.7v-0.3v-0.2v-0.2
		h0.2h0.2h0.3h1.9v-0.7v0v0l0,0l0,0c0-0.3,0-0.6,0-0.8c0-0.3,0-0.5,0-0.8v0c0-0.3,0-0.5,0-0.7c0-0.2,0-0.4,0.1-0.7
		c0-0.2,0-0.5,0.1-0.6c0-0.2,0-0.4,0.1-0.6c0-0.2,0.1-0.4,0.1-0.5c0-0.2,0.1-0.3,0.1-0.5c0-0.2,0.1-0.4,0.1-0.6
		c0.1-0.2,0.1-0.4,0.2-0.5c0.1-0.2,0.1-0.3,0.2-0.5c0.1-0.2,0.1-0.3,0.2-0.5c0.1-0.2,0.2-0.3,0.3-0.4c0.1-0.1,0.2-0.3,0.3-0.4
		c0.1-0.1,0.2-0.3,0.3-0.4c0.1-0.1,0.2-0.2,0.3-0.3l0,0l0.1-0.1l0.1-0.1h0c0.2-0.2,0.5-0.4,0.8-0.6c0.3-0.2,0.6-0.3,1-0.5
		c0.4-0.1,0.7-0.2,1.1-0.3c0.4-0.1,0.8-0.1,1.3-0.2l0.4,0l0.2,0l0.2,0v0.3v0.3v0.4v1.5v0.3v0.2v0.2l-0.2,0l-0.2,0L170.1,18.4z"/>
	<path id="XMLID_665_" class="st1" d="M154.4,41.2c0.2-0.5,0.3-1,0.4-1.5c0.1-0.5,0.1-1.1,0.2-1.6v-0.1v-8.1c-0.6,0-1.1-0.1-1.5-0.1
		c-0.5,0-1-0.1-1.4-0.1c-0.4,0-0.8,0-1-0.1c-0.3,0-0.5,0-0.6,0l0,0l0,0h0c-0.4,0-0.9,0-1.3,0c-0.4,0.1-0.8,0.2-1.2,0.3
		c-0.4,0.1-0.8,0.3-1.1,0.6c-0.4,0.2-0.7,0.5-1.1,0.8l0,0l0,0c-0.4,0.4-0.8,0.8-1.1,1.3c-0.3,0.5-0.6,1.1-0.9,1.8l0,0l0,0
		c-0.1,0.3-0.2,0.6-0.3,0.9c-0.1,0.3-0.2,0.6-0.2,0.9c-0.1,0.3-0.1,0.6-0.1,1c0,0.3,0,0.6,0,1c0,0.4,0,0.8,0.1,1.2
		c0,0.4,0.1,0.7,0.2,1.1c0.1,0.3,0.2,0.7,0.3,1c0.1,0.3,0.3,0.6,0.4,0.9l0,0c0.6,1,1.3,1.8,2,2.3c0.7,0.5,1.6,0.8,2.4,0.8
		c0.4,0,0.7,0,1.1-0.1c0.3-0.1,0.7-0.2,1-0.3c0.3-0.1,0.7-0.3,1-0.5h0c0.3-0.2,0.7-0.5,1-0.8l0,0c0.4-0.4,0.7-0.7,1-1.1
		C154,42.2,154.2,41.7,154.4,41.2 M147.3,27.5c0.5-0.2,1.1-0.3,1.7-0.4c0.6-0.1,1.2-0.1,1.8,0h0c0.4,0,0.9,0,1.3,0
		c0.5,0,1,0.1,1.5,0.1c0.5,0,1.1,0.1,1.6,0.1c0.6,0.1,1.2,0.1,1.8,0.2l0.2,0l0.2,0v0.2V28v19v0.2v0.2h-0.2h-0.2h-1.6h-0.2H155v-0.2
		v-0.2v-2c-0.1,0.2-0.3,0.3-0.4,0.5c-0.2,0.2-0.3,0.3-0.5,0.5l0,0l0,0c-0.4,0.4-0.8,0.7-1.2,0.9c-0.4,0.3-0.9,0.5-1.3,0.7
		c-0.4,0.2-0.9,0.3-1.4,0.4c-0.5,0.1-1,0.1-1.5,0.1c-0.6,0-1.2-0.1-1.7-0.2c-0.6-0.1-1.1-0.3-1.6-0.6c-0.5-0.3-1-0.6-1.4-1
		c-0.4-0.4-0.9-0.9-1.2-1.4l0-0.1v0c-0.3-0.5-0.6-0.9-0.9-1.4c-0.3-0.5-0.5-1.1-0.7-1.6c-0.2-0.6-0.3-1.1-0.4-1.7
		c-0.1-0.6-0.1-1.2-0.1-1.9c0-0.2,0-0.3,0-0.5c0-0.2,0-0.3,0-0.5c0-0.2,0-0.3,0.1-0.5c0-0.2,0-0.3,0.1-0.5l0-0.3l0,0
		c0.1-0.6,0.2-1.2,0.4-1.8c0.2-0.6,0.5-1.3,0.8-1.8c0.3-0.6,0.6-1.1,1-1.6c0.3-0.5,0.7-0.9,1.2-1.3l0,0l0.2-0.1
		c0.5-0.4,0.9-0.8,1.4-1.1C146.2,27.9,146.8,27.6,147.3,27.5z M135.9,47.5h-1.6h-0.2h-0.2v-0.2V47V16.5v-0.2V16h0.2h0.2h1.6h0.2h0.2
		v0.2v0.2V47v0.2v0.2h-0.2H135.9z M127.4,38.3c0-0.1,0-0.3,0-0.4c0-0.1,0-0.3,0-0.4v0l0,0l0,0l0-0.4c0-0.1,0-0.2,0-0.3
		c0-0.1,0-0.2,0-0.2c0,0,0-0.1,0-0.2c0-0.6-0.1-1.2-0.2-1.7c-0.1-0.5-0.2-1-0.4-1.5c-0.2-0.4-0.4-0.9-0.6-1.2
		c-0.2-0.4-0.5-0.7-0.8-1c-0.3-0.3-0.6-0.5-1-0.8c-0.3-0.2-0.7-0.4-1.1-0.5c-0.4-0.1-0.8-0.2-1.3-0.3c-0.5-0.1-0.9-0.1-1.4,0l0,0h0
		v0c-0.3,0-0.7,0-1.1,0c-0.4,0-0.8,0-1.2,0.1c-0.4,0-0.8,0.1-1.2,0.1c-0.4,0-0.8,0.1-1.1,0.1v6.9v0.2v0.9v0.3V45
		c1.2,0.1,2.2,0.2,3,0.2c0.8,0.1,1.3,0.1,1.6,0.1l0,0l0,0c0.4,0,0.8,0,1.2,0c0.4-0.1,0.8-0.2,1.1-0.3c0.4-0.1,0.7-0.3,1.1-0.6
		c0.4-0.2,0.7-0.5,1.1-0.8c0.3-0.3,0.5-0.6,0.8-0.9c0.2-0.3,0.5-0.7,0.6-1.2c0.2-0.4,0.4-0.9,0.5-1.5
		C127.1,39.5,127.3,38.9,127.4,38.3L127.4,38.3z M130,36.5c0,0,0,0.1,0,0.1c0,0,0,0.1,0,0.1h0c0,0,0,0.1,0,0.1c0,0.1,0,0.1,0,0.2
		c0,0.1,0,0.1,0,0.2c0,0.1,0,0.1,0,0.2c0,0.1,0,0.3,0,0.4c0,0.1,0,0.1,0,0.2c0,0.1,0,0.1,0,0.2l0,0c-0.1,0.8-0.2,1.5-0.4,2.2
		c-0.2,0.7-0.4,1.4-0.7,2c-0.3,0.6-0.6,1.2-1,1.7c-0.4,0.5-0.8,1-1.3,1.5c-0.4,0.4-0.9,0.7-1.3,1c-0.5,0.3-1,0.5-1.5,0.7
		c-0.5,0.2-1.1,0.3-1.7,0.4c-0.6,0.1-1.2,0.1-1.8,0.1c-0.3,0-0.6,0-0.9,0c-0.3,0-0.7,0-1.1-0.1c-0.4,0-0.8-0.1-1.2-0.1
		c-0.3,0-0.7-0.1-1.1-0.1v10.7v0.2v0.2h-0.2h-0.2h-1.6h-0.2h-0.2v-0.2v-0.2V27.9v-0.2v-0.2l0.2,0l0.2,0c0.8-0.1,1.6-0.1,2.3-0.2
		c0.7-0.1,1.3-0.1,1.8-0.1c0.5,0,1-0.1,1.3-0.1c0.3,0,0.6,0,0.8,0c0.1,0,0.1,0,0.2,0c0.1,0,0.2,0,0.2,0c0.1,0,0.2,0,0.3,0
		c0.1,0,0.2,0,0.2,0c0.6,0,1.1,0,1.7,0.1c0.5,0.1,1,0.2,1.5,0.4c0.5,0.2,0.9,0.4,1.4,0.6c0.4,0.3,0.8,0.6,1.2,0.9l0,0l0,0
		c0.5,0.4,0.9,0.9,1.3,1.4c0.4,0.5,0.7,1.1,1,1.7c0.3,0.6,0.5,1.2,0.6,1.9c0.1,0.7,0.2,1.4,0.3,2.1v0l0,0v0l0,0.2
		C130,36.4,130,36.4,130,36.5z M75.4,47.2h-2.1h-0.2v-0.2V22.8v-0.2h0.2h2.1h0.2v0.2v24.1v0.2H75.4z M105.7,27.8
		c0.5,0.3,0.9,0.6,1.2,1s0.6,0.8,0.9,1.3l0,0l0,0c0.2,0.4,0.4,0.8,0.5,1.3c0.1,0.5,0.3,1,0.4,1.5c0.1,0.5,0.2,1.1,0.2,1.7
		c0,0.6,0.1,1.3,0.1,1.9V47v0.2v0.2h-0.2h-0.2h-1.7h-0.2h-0.2v-0.2V47V36.5v-0.1c0-1-0.1-1.9-0.3-2.7c-0.1-0.8-0.4-1.5-0.6-2.1l0,0
		v0c-0.4-0.8-0.9-1.3-1.5-1.7c-0.7-0.4-1.5-0.6-2.6-0.6c-0.7,0-1.3,0.1-2,0.4c-0.3,0.1-0.7,0.3-1,0.6c-0.3,0.2-0.7,0.5-1,0.8
		c-0.2,0.2-0.4,0.4-0.6,0.7c-0.2,0.3-0.4,0.5-0.5,0.9c-0.1,0.3-0.3,0.6-0.4,1c-0.1,0.4-0.2,0.7-0.3,1.1c0,0.1,0,0.2,0,0.3
		c0,0.1,0,0.3,0,0.4c0,0.2,0,0.4,0,0.5c0,0.2,0,0.4,0,0.5V47v0.2v0.2h-0.2h-0.2h-1.7h-0.2h-0.2v-0.2V47V36.5v-0.1
		c0-0.5,0-0.9-0.1-1.4c0-0.5-0.1-0.9-0.2-1.3c-0.1-0.4-0.2-0.8-0.3-1.1c-0.1-0.3-0.2-0.7-0.4-1l0,0v0c-0.4-0.8-0.9-1.3-1.5-1.7
		c-0.7-0.4-1.5-0.6-2.6-0.6c-0.3,0-0.7,0-1,0.1c-0.3,0.1-0.7,0.2-1,0.3c-0.3,0.1-0.7,0.3-1,0.6c-0.3,0.2-0.7,0.5-1,0.8l-0.1,0.1
		c-0.1,0.1-0.3,0.3-0.4,0.4c-0.1,0.2-0.3,0.3-0.4,0.5c-0.1,0.2-0.2,0.4-0.3,0.6c-0.1,0.2-0.2,0.4-0.2,0.6V47v0.2v0.2h-0.2h-0.2h-1.6
		h-0.2h-0.2v-0.2V47V27.8v-0.2v-0.2h0.2h0.2h1.6h0.2h0.2v0.2v0.2v1c0.7-0.7,1.4-1.2,2.2-1.5c0.9-0.4,1.9-0.6,3-0.6
		c0.1,0,0.2,0,0.3,0c0.1,0,0.2,0,0.3,0c0.1,0,0.2,0,0.3,0c0.1,0,0.2,0,0.3,0l0,0c0.7,0.1,1.4,0.3,2,0.5c0.6,0.2,1.2,0.6,1.6,0.9
		c0.4,0.3,0.8,0.7,1.1,1.1c0.2,0.3,0.5,0.7,0.7,1.1l0.1-0.1c0.1-0.1,0.2-0.3,0.3-0.4c0.2-0.2,0.3-0.4,0.5-0.6
		c0.2-0.2,0.4-0.4,0.6-0.6l0,0c0,0,0.1-0.1,0.1-0.1l0,0c0.3-0.3,0.7-0.6,1-0.8c0.4-0.3,0.8-0.5,1.3-0.7c0.4-0.2,0.9-0.3,1.3-0.4
		c0.5-0.1,0.9-0.1,1.4-0.1c0.2,0,0.4,0,0.6,0c0.2,0,0.4,0,0.6,0.1l0,0c0.6,0.1,1.2,0.2,1.8,0.4C104.8,27.3,105.3,27.6,105.7,27.8z"
		/>
	<path id="XMLID_662_" class="st2" d="M31.3,41.8l-2.2,0l2.4,1.1l2.2-1.1c0,0-2.4-1-2.2-12.6L31.3,41.8z M31.4,29.2l0-0.2
		C31.4,29.1,31.4,29.1,31.4,29.2z"/>
	<path id="XMLID_661_" class="st2" d="M31.3,45.9c0,0,0.6-0.3,1.3-0.3c0.7,0,3.1,0.7,3.1,0.7s-2.1-0.1-2.9-0.1
		c-0.8,0-1.5,0.4-1.5,0.4s-0.7-0.5-1.5-0.4c-0.8,0-2.9,0.1-2.9,0.1s2.4-0.7,3.1-0.7C30.6,45.6,31.3,45.9,31.3,45.9"/>
	<path id="XMLID_660_" class="st2" d="M31.3,47.6c-0.4,0-0.8-0.1-0.8-0.1c0.4,0.3,1,0.2,1.3,0.1c0.2-0.1,0.3-0.2,0.2-0.2
		C32.1,47.5,31.7,47.6,31.3,47.6"/>
	<path id="XMLID_659_" class="st2" d="M31.8,42.7c0,0,1.6-0.8,2.4-1.2c0.8-0.4-1.2,0.4-1.6,0.4C32.3,41.9,31.8,42.7,31.8,42.7"/>
	<path id="XMLID_658_" class="st2" d="M34.9,46.2l-3.5,1.6c0,0,1-0.3,2.1-0.8c0.7-0.3,1.5-0.6,2-0.7L34.9,46.2z"/>
	<path id="XMLID_657_" class="st2" d="M17.5,32.8c0,0,0.2,1.5,4.3,6.5c0.2,0.2,0.4,0.5,0.6,0.8c0.5,0.7,1.7,1.7,2,2.5
		c0.4,0.8,1.3,6.8,1.3,7.9c0.2,2.7,0,5.4-0.5,7.9c0,0,0.4-4.1,0-8.4c-0.1-0.7-0.7-5.9-1-7.3c-0.2-0.6-6.7-7.3-6.7-9L17.5,32.8z"/>
	<path id="XMLID_656_" class="st2" d="M17.5,30.3c0.1-0.9-0.7,2.1,0,3.7c0.7,1.5,0.7,0.7,0.7,0.7C17.5,33.2,17.3,32,17.5,30.3"/>
	<path id="XMLID_655_" class="st2" d="M44.7,30.3c-0.1-0.9,0.7,2.1,0,3.7c-0.7,1.5-0.7,0.7-0.7,0.7C44.8,33.2,45,32,44.7,30.3"/>
	<path id="XMLID_651_" class="st2" d="M43.6,33.7c0.5-3.1,0.8-6.1,0.4-8.4c-1.1-7.1-4.9-11.3-12.1-11.7c7,0.9,10.3,4.6,11.3,11.8
		c0.4,2.9-0.1,6.4-0.6,9.8L43.6,33.7z M30.6,13.6c-7.2,0.4-11,4.6-12.1,11.7c-0.6,4.1,0.8,9.5,1.2,14.9c0.2,2.4,0.5,4.2,1.8,6.1
		c0.4,0.6,1.1,1.3,1.5,1.7c0.7,0.7,1.3,1.4,2.7,2.5c2.6,2.1,4,3,5.5,3.1c1.4,0,2.7-0.8,5.1-3c1.3-1.2,3.5-2.7,4.3-3.8
		c1.3-1.9,1.4-3.4,1.9-6.2c0.3-1.7,0.6-3.4,0.9-5.1c-0.3,0.4-0.6,0.8-0.9,1.3c-0.1,0.4-0.1,0.8-0.2,1.2c-0.6,3.7-0.6,5.9-2.1,8.3
		c-0.8,1.2-3,2.8-4.6,4.2c-2.3,2-3.1,2.6-4.3,2.6c-1.3,0.1-5.3-3.1-5.8-3.5c-1.9-1.5-2.8-2.8-3.6-4c-1.1-1.7-1.3-3.6-1.6-7.6
		c-0.3-4.2-1.5-9-1-12.6C20.3,18.2,23.6,14.5,30.6,13.6z"/>
	<path id="XMLID_650_" class="st2" d="M44.8,32.8c0,0-0.2,1.5-4.3,6.5c-0.2,0.2-0.4,0.5-0.6,0.8c-0.5,0.7-1.7,1.7-2,2.5
		c-0.4,0.8-1.3,6.8-1.3,7.9c-0.2,2.7,0,5.4,0.5,7.9c0,0-0.4-4.1,0-8.4c0.1-0.7,0.7-5.9,1-7.3c0.2-0.6,6.7-7.3,6.7-9L44.8,32.8z"/>
	<path id="XMLID_649_" class="st2" d="M16.5,51.3c0.5,0.5,1.5,2.4,1.2,3.8c0,0-0.3-2.7-1.6-3.4C16,51.6,16.4,51.2,16.5,51.3"/>
	<path id="XMLID_614_" class="st2" d="M8.4,47.4c0.4-0.5,0.4-0.8,0.7-0.9c0.4-0.1,0.7,0.1,0.7,0.1c0.5-0.7,1-0.5,2.5-0.7
		c0.7-0.1,2.2-0.5,2.2-0.5s-2.5,1.1-3.2,1.3c-0.7,0.3-1.1,0.5-1.4,0.5C9.7,47.3,8.6,47.2,8.4,47.4 M3.7,27.5L3.7,27.5
		c0-0.1,0-0.2,0-0.2v0C4.7,22.6,7.8,19.4,15,19C8.1,19,4.5,21.9,3.1,26.1c0,0.1-0.2,0.6-0.2,0.8l0,0l0,0l0,0l0,0
		c-0.2,0.7-0.3,1.4-0.4,2.1c-0.2,2.5,0.3,4.9,0.8,7.7c0.4,2.4,0.3,3.8,0.5,4.5c0.6,3.1,3.5,6.6,5,9.3c0.6,1.2,0.9,2,1.9,2.6
		c1.9,1.1,3.9-0.6,6.2-2c2.7-1.5,4.7-3.3,4.7-3.3c-2,1.2-7,4.6-8.7,5c-0.7,0.2-1.4,0.4-2.1-0.1c-1-0.8-1.2-1.8-2.4-3.8
		c-3.3-5.1-3.7-6.5-3.8-7.7c-0.2-1.3-0.1-2.6-0.5-4.6c-0.6-3-0.8-5.9-0.5-8.4l0,0c0-0.1,0-0.2,0-0.3l0,0L3.7,27.5z M5.6,43.8
		l0.9-0.7c0.1,0.1,0.2,0.2,0.4,0.3c0.6,0.3,1.4,1.1,1.4,1.1s0,0-0.2-0.5C7.9,43.5,7.5,43,7.5,43s1-1.5,0.8-4.5
		c-0.1-1.3-0.5-2.4-1.6-4.5C7.7,37.3,8.7,39.9,5.6,43.8z"/>
	<path id="XMLID_612_" class="st2" d="M14.6,45.5l-3.8,4.1l3-3.7C13.7,45.8,13.9,45.6,14.6,45.5"/>
	<polygon id="XMLID_611_" class="st2" points="8.4,47.4 10.4,48.6 8.8,47.2 	"/>
	<path id="XMLID_610_" class="st2" d="M46.3,51.3c-0.5,0.5-1.5,2.4-1.2,3.8c0,0,0.3-2.7,1.6-3.4C46.9,51.6,46.4,51.2,46.3,51.3"/>
	<path id="XMLID_606_" class="st2" d="M54.4,47.4c-0.4-0.5-0.4-0.8-0.7-0.9c-0.4-0.1-0.7,0.1-0.7,0.1c-0.5-0.7-1-0.5-2.5-0.7
		c-0.7-0.1-2.2-0.5-2.2-0.5s2.5,1.1,3.2,1.3c0.7,0.3,1.1,0.5,1.4,0.5C53.2,47.3,54.2,47.2,54.4,47.4 M59.2,27.5L59.2,27.5
		c0-0.1,0-0.2,0-0.2v0c-0.9-4.6-4.1-7.9-11.3-8.3c6.9-0.1,10.5,2.9,11.9,7.1c0,0.1,0.2,0.6,0.2,0.8l0,0l0,0l0,0l0,0
		c0.2,0.7,0.3,1.4,0.4,2.1c0.2,2.5-0.3,4.9-0.8,7.7c-0.4,2.4-0.3,3.8-0.5,4.5c-0.6,3.1-3.5,6.6-5,9.3c-0.6,1.2-0.9,2-1.9,2.6
		c-1.9,1.1-3.9-0.6-6.2-2c-2.7-1.5-4.7-3.3-4.7-3.3c2,1.2,7,4.6,8.7,5c0.7,0.2,1.4,0.4,2.1-0.1c1-0.8,1.2-1.8,2.4-3.8
		c3.3-5.1,3.7-6.5,3.8-7.7c0.2-1.3,0.1-2.6,0.5-4.6c0.6-3,0.8-5.9,0.5-8.4v0c0-0.1,0-0.2,0-0.3l0,0L59.2,27.5z M57.2,43.8l-0.9-0.7
		c-0.1,0.1-0.2,0.2-0.4,0.3c-0.6,0.3-1.4,1.1-1.4,1.1s0,0,0.2-0.5c0.2-0.4,0.6-0.9,0.6-0.9s-1-1.5-0.8-4.5c0.1-1.3,0.5-2.4,1.6-4.5
		C55.1,37.3,54.2,39.9,57.2,43.8z"/>
	<path id="XMLID_605_" class="st2" d="M48.3,45.5l3.8,4.1l-3-3.7C49.1,45.8,49,45.6,48.3,45.5"/>
	<polygon id="XMLID_604_" class="st2" points="54.4,47.4 52.4,48.6 54.1,47.2 	"/>
</g>
<g id="Dimensions">
</g>
</svg>
